<svg width="35" height="35" viewBox="0 0 35 35" fill="none" xmlns="http://www.w3.org/2000/svg">
<g clip-path="url(#clip0_36_25)">
<path d="M17.5029 35C7.85063 35 0 27.1494 0 17.5029C0 7.85633 7.85063 0 17.5029 0C27.1551 0 35.0057 7.85063 35.0057 17.5029C35.0057 27.1551 27.1551 35.0057 17.5029 35.0057V35ZM17.5029 2.2805C9.1049 2.2805 2.2805 9.1049 2.2805 17.5029C2.2805 25.9008 9.11061 32.7252 17.5029 32.7252C25.8951 32.7252 32.7252 25.8951 32.7252 17.5029C32.7252 9.11061 25.8951 2.2805 17.5029 2.2805Z" fill="#E74228"/>
<path d="M12.1665 12.4915H8.51196V25.8951H12.1665V12.4915Z" fill="#E74228"/>
<path d="M10.3421 6.64771C9.16765 6.64771 8.20984 7.61122 8.20984 8.79708C8.20984 9.98294 9.16765 10.9465 10.3421 10.9465C11.5166 10.9465 12.4744 9.98294 12.4744 8.79708C12.4744 7.61122 11.5166 6.64771 10.3421 6.64771Z" fill="#E74228"/>
<path d="M18.2612 14.6409V12.4915H14.6067V25.8951H18.2612V19.065C18.2612 15.2737 23.1358 14.9601 23.1358 19.065V25.8951H26.7903V17.6568C26.7903 11.2543 19.9602 11.4881 18.2612 14.6409Z" fill="#E74228"/>
</g>
<defs>
<clipPath id="clip0_36_25">
<rect width="35" height="35" fill="white"/>
</clipPath>
</defs>
</svg>
