<svg width="318" height="76" viewBox="0 0 318 76" fill="none" xmlns="http://www.w3.org/2000/svg">
<g clip-path="url(#clip0_35_64)">
<path d="M96.28 27.15H105.83V54.52H112.25V27.15H121.8V21.49H96.28V27.15Z" fill="#006EAA"/>
<path d="M151.63 32.76V32.04C151.63 24.76 146.56 21.27 138.64 21.27H126.38V54.53H132.8V43.49H138.77L146.55 54.53H154.06L145.28 42.4C149.26 40.91 151.61 37.7 151.61 32.76H151.63ZM139.32 38.28H132.8V26.74H139.32C142.85 26.74 145.11 29.09 145.11 32.53C145.11 35.97 142.85 38.28 139.32 38.28Z" fill="#006EAA"/>
<path d="M167.09 21.49L155.82 54.52H162.25L165.15 45.74H179.54L182.57 54.52H189.18L177.6 21.49H167.1H167.09ZM166.96 40.32L171.44 26.88H173.11L177.68 40.32H166.96Z" fill="#006EAA"/>
<path d="M204.81 21.27H192.87V54.71H204.81C216.71 54.71 222.64 46.39 222.64 38.42V37.42C222.64 29.05 216.71 21.27 204.81 21.27ZM205.22 48.73H199.29V27.24H205.22C212.05 27.24 216.12 31.31 216.12 37.92C216.12 44.53 212.05 48.73 205.22 48.73Z" fill="#006EAA"/>
<path d="M234.28 40.45H247.17V35.02H234.28V26.92H247.99V21.49H227.99V54.52H248.35V49.09H234.28V40.45Z" fill="#006EAA"/>
<path d="M281.83 21.49H274.95L267.85 32.58H266.9L259.75 21.49H252.6L263.01 37.28L251.61 54.52H258.48L266.45 42.13H267.4L275.72 54.52H282.83L271.24 37.51L281.83 21.49Z" fill="#006EAA"/>
<path d="M305.68 21.49H295.18L283.91 54.52H290.34L293.24 45.74H307.63L310.66 54.52H317.27L305.69 21.49H305.68ZM295.05 40.32L299.53 26.88H301.2L305.77 40.32H295.05Z" fill="#006EAA"/>
<path d="M7.11253 30.4893L0.281874 37.3199C-0.0891239 37.6909 -0.0891234 38.2925 0.281875 38.6635L7.11253 45.4941C7.48352 45.8651 8.08503 45.8651 8.45603 45.4941L15.2867 38.6635C15.6577 38.2925 15.6577 37.6909 15.2867 37.3199L8.45603 30.4893C8.08503 30.1183 7.48352 30.1183 7.11253 30.4893Z" fill="#E74133"/>
<path d="M37.3188 60.6822L30.4882 67.5129C30.1172 67.8839 30.1172 68.4854 30.4882 68.8564L37.3188 75.687C37.6898 76.058 38.2913 76.058 38.6623 75.687L45.493 68.8564C45.864 68.4854 45.864 67.8839 45.493 67.5129L38.6623 60.6822C38.2913 60.3112 37.6898 60.3112 37.3188 60.6822Z" fill="#E74133"/>
<path d="M37.3125 0.275902L30.4819 7.10655C30.1109 7.47755 30.1109 8.07906 30.4819 8.45006L37.3125 15.2807C37.6835 15.6517 38.285 15.6517 38.656 15.2807L45.4867 8.45006C45.8577 8.07906 45.8577 7.47755 45.4867 7.10655L38.656 0.275901C38.285 -0.0950968 37.6835 -0.0950963 37.3125 0.275902Z" fill="#E74133"/>
<path d="M67.5188 30.483L60.6882 37.3136C60.3172 37.6846 60.3172 38.2861 60.6882 38.6571L67.5189 45.4878C67.8899 45.8588 68.4914 45.8588 68.8624 45.4878L75.693 38.6571C76.064 38.2861 76.064 37.6846 75.693 37.3136L68.8624 30.483C68.4914 30.112 67.8898 30.112 67.5188 30.483Z" fill="#E74133"/>
<path d="M53.82 31.93L61.39 24.35C61.76 23.98 61.76 23.38 61.39 23.01L52.96 14.58C52.59 14.21 51.99 14.21 51.62 14.58L38.66 27.54C38.29 27.91 37.69 27.91 37.32 27.54L24.36 14.58C23.99 14.21 23.39 14.21 23.02 14.58L14.58 23.02C14.21 23.39 14.21 23.99 14.58 24.36L22.15 31.93C22.33 32.11 22.57 32.21 22.82 32.21H53.15C53.4 32.21 53.64 32.11 53.82 31.93Z" fill="#E74133"/>
<path d="M53.15 43.76H22.82C22.57 43.76 22.33 43.86 22.15 44.04L14.58 51.62C14.21 51.99 14.21 52.59 14.58 52.96L23.01 61.39C23.38 61.76 23.98 61.76 24.35 61.39L37.31 48.43C37.68 48.06 38.28 48.06 38.65 48.43L51.61 61.39C51.98 61.76 52.58 61.76 52.95 61.39L61.39 52.95C61.76 52.58 61.76 51.98 61.39 51.61L53.82 44.04C53.64 43.86 53.4 43.76 53.15 43.76Z" fill="#E74133"/>
</g>
<defs>
<clipPath id="clip0_35_64">
<rect width="317.27" height="75.97" fill="white"/>
</clipPath>
</defs>
</svg>
