<svg width="32" height="26" viewBox="0 0 32 26" fill="none" xmlns="http://www.w3.org/2000/svg">
<g clip-path="url(#clip0_59_6)">
<path d="M27.7236 26H4.27645C1.91811 26 0 24.0404 0 21.631V4.36903C0 1.95964 1.91811 0 4.27645 0H27.7236C30.0819 0 32 1.95964 32 4.36903V21.631C32 24.0404 30.0819 26 27.7236 26ZM4.27645 2.13097C3.07108 2.13097 2.08582 3.13756 2.08582 4.36903V21.631C2.08582 22.8731 3.07108 23.8797 4.27645 23.8797H27.7236C28.9394 23.8797 29.9247 22.8731 29.9247 21.631V4.36903C29.9247 3.13756 28.9394 2.13097 27.7236 2.13097H4.27645Z" fill="#E74329"/>
<path d="M15.9948 14.8419C14.9257 14.8419 13.8461 14.4564 12.9971 13.6961L0.964355 2.93414L2.33743 1.32788L14.3702 12.0898C15.2926 12.9144 16.6971 12.9251 17.6404 12.0898C17.6404 12.0898 25.0613 5.35424 29.191 1.65984L30.5641 3.2661C26.4344 6.94979 19.0135 13.6854 19.0135 13.6854C18.154 14.4564 17.0744 14.8419 15.9948 14.8419Z" fill="#E74329"/>
</g>
<defs>
<clipPath id="clip0_59_6">
<rect width="32" height="26" fill="white"/>
</clipPath>
</defs>
</svg>
